<svg id="Capa_1" enable-background="new 0 0 512 512" height="512" viewBox="0 0 512 512" width="512" xmlns="http://www.w3.org/2000/svg"><g><path d="m322 401c44.112 0 80 35.888 80 80 0 5.522 4.478 10 10 10s10-4.478 10-10c0-44.112 35.888-80 80-80 5.522 0 10-4.478 10-10s-4.478-10-10-10c-44.112 0-80-35.888-80-80 0-5.522-4.478-10-10-10s-10 4.478-10 10c0 44.112-35.888 80-80 80-5.522 0-10 4.478-10 10s4.478 10 10 10zm90-56.429c9.816 20.194 26.234 36.612 46.429 46.429-20.194 9.816-36.612 26.234-46.429 46.429-9.816-20.194-26.234-36.612-46.429-46.429 20.195-9.816 36.613-26.234 46.429-46.429z"/><path d="m10 101c27.57 0 50 22.43 50 50 0 5.522 4.477 10 10 10s10-4.478 10-10c0-27.57 22.43-50 50-50 5.523 0 10-4.478 10-10s-4.477-10-10-10c-27.57 0-50-22.43-50-50 0-5.522-4.477-10-10-10s-10 4.478-10 10c0 27.57-22.43 50-50 50-5.523 0-10 4.478-10 10s4.477 10 10 10zm60-33.976c5.913 9.81 14.166 18.064 23.975 23.976-9.81 5.912-18.063 14.166-23.975 23.976-5.913-9.81-14.166-18.064-23.975-23.976 9.809-5.912 18.062-14.166 23.975-23.976z"/><circle cx="279" cy="294" r="10"/><path d="m305.678 271.194c2.817 4.749 8.954 6.315 13.703 3.496 26.118-15.498 56.07-23.69 86.619-23.69 5.522 0 10-4.478 10-10s-4.478-10-10-10c-93.738 0-170-76.262-170-170 0-5.522-4.477-10-10-10s-10 4.478-10 10c0 93.738-76.262 170-170 170-5.523 0-10 4.478-10 10s4.477 10 10 10c93.738 0 170 76.262 170 170 0 5.522 4.477 10 10 10s10-4.478 10-10c0-30.549 8.192-60.501 23.69-86.619 2.818-4.75 1.253-10.885-3.496-13.703-4.753-2.821-10.886-1.253-13.703 3.496-6.764 11.398-12.282 23.445-16.498 35.931-18.953-55.876-63.24-100.157-119.118-119.105 55.884-18.95 100.175-63.241 119.125-119.125 18.948 55.878 63.229 100.165 119.104 119.118-12.485 4.216-24.532 9.734-35.931 16.498-4.748 2.819-6.314 8.953-3.495 13.703z"/></g></svg>