<?xml version="1.0" encoding="iso-8859-1"?>
<!-- Generator: Adobe Illustrator 19.0.0, SVG Export Plug-In . SVG Version: 6.00 Build 0)  -->
<svg version="1.1" id="Capa_1" xmlns="http://www.w3.org/2000/svg" xmlns:xlink="http://www.w3.org/1999/xlink" x="0px" y="0px"
	 viewBox="0 0 512 512" style="enable-background:new 0 0 512 512;" xml:space="preserve">
<g>
	<g>
		<path d="M378.667,21.333c-56.792,0-103.698,52.75-122.667,77.646c-18.969-24.896-65.875-77.646-122.667-77.646
			C59.813,21.333,0,88.927,0,172c0,45.323,17.99,87.562,49.479,116.469c0.458,0.792,1.021,1.521,1.677,2.177l197.313,196.906
			c2.083,2.073,4.802,3.115,7.531,3.115s5.458-1.042,7.542-3.125L467.417,283.74l2.104-2.042c1.667-1.573,3.313-3.167,5.156-5.208
			c0.771-0.76,1.406-1.615,1.896-2.542C499.438,245.948,512,209.833,512,172C512,88.927,452.188,21.333,378.667,21.333z
			 M458.823,261.948c-0.292,0.344-0.563,0.708-0.802,1.083c-1,1.146-2.094,2.156-3.177,3.188L255.99,464.927L68.667,277.979
			c-0.604-1.188-1.448-2.271-2.479-3.177C37.677,249.906,21.333,212.437,21.333,172c0-71.313,50.24-129.333,112-129.333
			c61.063,0,113.177,79.646,113.698,80.448c3.938,6.083,14,6.083,17.938,0c0.521-0.802,52.635-80.448,113.698-80.448
			c61.76,0,112,58.021,112,129.333C490.667,205.604,479.354,237.552,458.823,261.948z"/>
	</g>
</g>
<g>
</g>
<g>
</g>
<g>
</g>
<g>
</g>
<g>
</g>
<g>
</g>
<g>
</g>
<g>
</g>
<g>
</g>
<g>
</g>
<g>
</g>
<g>
</g>
<g>
</g>
<g>
</g>
<g>
</g>
</svg>
