<svg viewBox="0 0 1440 1024" fill="none" xmlns="http://www.w3.org/2000/svg">
<rect width="1440" height="1024" fill="white"/>
<path fill-rule="evenodd" clip-rule="evenodd" d="M1013.26 788.746L1064 684L361 689.396L392 772.696C401.607 790.118 416.441 809.386 436.5 830.5C456.559 851.614 493.059 875.912 546 903.396L556 870L687.5 957.5L705.5 929.896L723.5 967.896L858 903.396L869.5 869.896L889 893.896L930.5 870L1003.19 802.369C1007.36 798.49 1010.77 793.871 1013.26 788.746Z" fill="white"/>
<path d="M555.131 869.893C547.491 852.666 540.041 818.255 532.757 766.604C532.7 766.194 532.985 765.815 533.395 765.757C533.806 765.699 534.185 765.985 534.243 766.395C541.459 817.562 548.835 851.76 556.347 868.934L687.285 956.06L704.872 929.09C724.925 898.281 739.582 874.132 748.837 856.649C758.09 839.172 767.411 818.033 776.799 793.234L778.202 793.765C768.793 818.619 759.447 839.814 750.163 857.351C740.918 874.814 726.316 898.881 706.357 929.557L723.855 966.498L857.393 902.459L869.23 867.977L889.179 892.531L930.052 868.996L1002.68 801.423C1006.78 797.608 1010.14 793.064 1012.58 788.022L1062.8 684.363L362.076 689.741L392.684 771.985C402.257 789.333 417.044 808.536 437.044 829.587C456.932 850.52 493.103 874.639 545.542 901.916L555.131 869.893ZM687.715 958.147L556.428 870.789L546.459 904.083L545.655 903.665C492.646 876.146 456.086 851.807 435.956 830.62C415.856 809.463 400.985 790.146 391.343 772.661L391.297 772.561L359.924 688.258L1065.2 682.844L1013.93 788.676C1011.41 793.885 1007.94 798.579 1003.7 802.521L931.011 870.153L930.874 870.253L888.821 894.468L869.771 871.022L858.608 903.54L723.145 968.502L705.396 931.032L687.715 958.147ZM857.291 902.756L857.676 902.323L857.393 902.459L857.291 902.756Z" fill="#575757"/>
<path fill-rule="evenodd" clip-rule="evenodd" d="M712.5 747.604C721.702 747.604 734.632 747.035 751.292 745.897L777 796.5L790.5 766.5L801 772L813.5 746C980.5 724.373 1064 704.644 1064 686.813C1064 670.582 1032.82 662.5 982.5 650.943C945.937 642.546 899.651 629.135 846 624.89C831.722 623.76 816.028 625.688 801 624.89C772.477 623.374 743.654 619.604 712.5 619.604C671.62 619.604 633.494 622.436 597 624.89C517.046 630.265 455.467 645.067 413.5 658.494C383.659 668.042 360.5 674.823 360.5 687C360.5 702.112 410.142 716.335 509.427 729.67L533.5 767.104L542.5 733.255C549.819 734.052 555.353 734.665 559.099 735.096C605.441 740.424 657.572 747.604 712.5 747.604Z" fill="#575757"/>
<path fill-rule="evenodd" clip-rule="evenodd" d="M458.277 656.401C529.219 491.625 577.794 387.825 604 345C631.333 300.333 650.833 273 662.5 263V662.834C662.5 672.392 656.328 680.856 647.228 683.779C622.903 691.593 592.327 695.5 555.5 695.5C522.943 695.5 495.36 692.447 472.748 686.34C461.018 683.172 454.077 671.095 457.245 659.365C457.518 658.354 457.863 657.363 458.277 656.401Z" fill="white"/>
<path d="M601.25 398.372V351.517C583.365 382.212 556.546 437.251 520.801 516.623L601.25 398.372ZM517.774 523.355C500.391 562.074 480.955 606.39 459.466 656.301C459.066 657.231 458.733 658.187 458.469 659.164C455.409 670.494 462.114 682.16 473.444 685.22C478.623 686.618 484.064 687.856 489.768 688.934L517.774 523.355H517.774ZM491.304 689.219C510.072 692.641 531.638 694.353 556 694.353C566.597 694.353 576.673 694.029 586.23 693.382L574.936 548.52L491.304 689.219ZM574.786 545.837L600.639 401.937L519.712 520.89L491.91 685.263L574.786 545.837ZM602.722 398.828L577.523 539.083L634.25 398.458C634.253 398.42 634.258 398.381 634.267 398.342L662.25 268.024V267.188L602.722 398.828ZM576.261 546.221L587.545 690.942L661.217 549.983L634.719 401.304L576.261 546.221ZM662.25 275.168L636.477 395.194L662.25 359.756V275.168ZM662.25 362.306L635.78 398.703L662.25 547.231V362.306ZM663.75 360.009V662.437C663.75 672.321 657.368 681.074 647.958 684.097C623.55 691.937 592.899 695.853 556 695.853C523.382 695.853 495.734 692.793 473.053 686.668C460.923 683.392 453.745 670.903 457.021 658.773C457.303 657.727 457.66 656.703 458.089 655.708C529.046 490.897 577.628 387.079 603.86 344.212C631.237 299.475 650.763 272.104 662.512 262.034L663.75 260.973V261.896C663.77 261.903 663.789 261.911 663.809 261.92C664.186 262.091 664.354 262.535 664.183 262.912L663.75 263.871V268.087C663.75 268.097 663.75 268.108 663.75 268.118V359.991C663.75 359.997 663.75 360.003 663.75 360.009ZM661.684 264.8C649.928 275.887 631.06 302.638 605.14 344.995C604.322 346.331 603.482 347.727 602.621 349.182C602.702 349.302 602.75 349.447 602.75 349.603V395.125L661.684 264.8ZM662.25 551.244L588.028 693.256C610.861 691.599 630.685 688.07 647.499 682.669C656.289 679.845 662.25 671.669 662.25 662.437V551.244Z" fill="#575757"/>
<path fill-rule="evenodd" clip-rule="evenodd" d="M662.426 263.021C662.617 263.048 662.809 263.076 663 263.104L556 314.604L538 281.104L524.5 303.604L482 314.604V289.104L460.5 314.604L428.5 322.604C429.5 320.604 445.167 306.77 475.5 281.104C505.728 255.526 567.901 249.479 662.018 262.962C662.108 262.76 662.198 262.559 662.287 262.357L542.533 220.958V197.533L507 206.643L471.467 190.158L477.967 165.432L429.867 177.144L396.5 165.432L404.3 141.573L364.433 158.491L312 151.116C332.222 122.774 381.767 108.604 460.633 108.604C539.288 108.604 606.592 159.661 662.547 261.775C710.681 153.988 771.148 93.7536 843.949 81.0715C917.124 68.3241 957.488 65.0452 965.042 71.2349L915 108.104L881.875 108.336L893 125.604L829 167.104L808 154.104V174.604L758.5 201.604L739.5 194.104L733 215.104L662.426 263.021ZM663.5 262.703C709.2 243.454 751.533 234.588 790.5 236.104C829.467 237.62 862.8 249.43 890.5 271.534L855 276.604L832 271.604V289.104L790.429 300.604L776.816 271.534L770.562 300.604L729.356 296.924V276.686L715.007 288.461L663.5 262.703Z" fill="#575757"/>
<path fill-rule="evenodd" clip-rule="evenodd" d="M941.787 501.354L963.787 529.354L1003.29 503.354L1008.94 484.989C1009.17 484.233 1009.36 483.464 1009.5 482.685L1013.85 458.766C1014.25 456.555 1012.78 454.436 1010.57 454.034C1008.36 453.632 1006.24 455.099 1005.84 457.31C1005.78 457.654 1005.76 458.005 1005.79 458.354C1006.01 461.247 1001.53 469.679 992.329 483.649L1003.29 458.354L994.865 441.574L959.787 473.354L941.787 501.354Z" fill="white"/>
<path d="M1003.84 458.447L994.813 440.472L959.004 472.914L958.877 473.065L940.588 501.514L963.344 530.476L1003.65 503.949L1009.38 485.326C1009.62 484.542 1009.81 483.743 1009.96 482.936L1014.31 459.017C1014.78 456.398 1013.05 453.889 1010.43 453.413C1007.81 452.937 1005.3 454.674 1004.82 457.292C1004.75 457.7 1004.73 458.115 1004.76 458.528C1004.92 460.625 1002.13 466.376 996.424 475.555L1003.84 458.447ZM960.085 473.959L994.358 442.908L1002.18 458.494L991.361 483.467L992.676 484.178C1002.01 469.998 1006.5 461.56 1006.26 458.412C1006.23 458.128 1006.25 457.842 1006.3 457.561C1006.63 455.757 1008.36 454.561 1010.16 454.889C1011.96 455.217 1013.16 456.945 1012.83 458.749L1008.48 482.667C1008.35 483.417 1008.17 484.157 1007.94 484.885L1002.37 502.992L963.671 528.465L942.427 501.427L960.085 473.959Z" fill="#575757"/>
<path fill-rule="evenodd" clip-rule="evenodd" d="M656.71 467.776L658 471.195L681 470.144L693 490.144L658 490.136C658 497.049 663.604 502.653 670.518 502.653C670.836 502.653 671.153 502.641 671.47 502.617L706.014 499.982C712.986 499.451 719.375 495.894 723.5 490.248L720 460.144L719.214 459.686C715.77 457.677 711.972 456.351 708.026 455.781L669 450.144C661.804 450.09 655.925 455.879 655.87 463.075C655.858 464.681 656.143 466.274 656.71 467.776Z" fill="white"/>
<path d="M691.675 489.25L657.25 489.241V489.991C657.25 497.319 663.19 503.259 670.518 503.259C670.855 503.259 671.191 503.246 671.527 503.22L706.071 500.586C713.261 500.037 719.851 496.369 724.106 490.546L724.279 490.309L720.702 459.541L719.592 458.894C716.065 456.836 712.174 455.478 708.133 454.895L669.107 449.258L669.006 449.25C661.395 449.192 655.179 455.315 655.121 462.925C655.108 464.623 655.408 466.308 656.008 467.896L657.491 471.825L680.587 470.77L691.675 489.25ZM707.919 456.379C711.769 456.935 715.476 458.229 718.836 460.189L719.298 460.459L722.721 489.896C718.721 495.228 712.613 498.582 705.957 499.09L671.413 501.725C671.115 501.747 670.816 501.759 670.518 501.759C664.271 501.759 659.16 496.891 658.774 490.741L694.325 490.75L681.413 469.23L658.51 470.276L657.411 467.367C656.877 465.951 656.609 464.449 656.62 462.937C656.672 456.171 662.185 450.725 668.944 450.749L707.919 456.379Z" fill="#575757"/>
<path fill-rule="evenodd" clip-rule="evenodd" d="M989.949 670.869L1029.72 636L1108.26 682.773C1110.08 683.859 1111.2 685.828 1111.19 687.951C1111.18 691.265 1108.48 693.941 1105.17 693.928L1007.65 693.55C1000.1 693.521 993.607 688.229 992.052 680.849L989.949 670.869ZM908 697.035L969.985 688.279L998.74 763.468C999.844 766.355 999.389 769.607 997.535 772.08C994.554 776.058 988.913 776.866 984.936 773.885L915.412 721.778C911.378 718.755 908.894 714.098 908.63 709.064L908 697.035Z" fill="white"/>
<path d="M988.906 670.698L1029.42 635.18L1108.43 682.232C1110.48 683.454 1111.73 685.669 1111.72 688.058C1111.71 691.785 1108.67 694.796 1104.95 694.781L1007.43 694.404C999.53 694.373 992.728 688.833 991.1 681.108L988.906 670.698ZM992.568 680.798C994.05 687.832 1000.24 692.876 1007.43 692.904L1104.95 693.281C1107.85 693.293 1110.21 690.951 1110.22 688.052C1110.23 686.194 1109.25 684.471 1107.66 683.521L1029.58 637.027L990.555 671.247L992.568 680.798ZM906.997 696.492L970.254 687.556L999.222 763.304C1000.42 766.431 999.926 769.954 997.917 772.634C994.688 776.943 988.577 777.818 984.268 774.588L914.744 722.482C910.532 719.325 907.939 714.463 907.663 709.207L906.997 696.492ZM909.161 709.129C909.414 713.94 911.788 718.392 915.643 721.281L985.168 773.388C988.814 776.121 993.984 775.38 996.717 771.734C998.416 769.467 998.833 766.486 997.821 763.839L969.28 689.209L908.567 697.785L909.161 709.129Z" fill="#575757"/>
<path d="M995 584.5C1018.16 584.5 1036.93 565.728 1036.93 542.572C1036.93 534.005 1034.3 525.643 1029.41 518.613L1002.5 474L999.948 478.929L1025.3 521.47C1029.62 527.662 1031.93 535.027 1031.93 542.572C1031.93 562.967 1015.39 579.5 995 579.5V584.5Z" fill="#DAFFD0"/>
<path d="M994.529 585.354C1018.1 585.354 1037.21 566.246 1037.21 542.676C1037.21 533.956 1034.54 525.444 1029.55 518.288L1002.67 473.716L1001.98 472.569L998.619 479.058L1024.19 521.958C1028.44 528.069 1030.71 535.284 1030.71 542.676C1030.71 562.656 1014.51 578.854 994.529 578.854H993.779V585.354H994.529ZM995.279 580.346C1015.74 579.947 1032.21 563.234 1032.21 542.676C1032.21 534.977 1029.85 527.463 1025.45 521.145L1000.34 479.007L1002.08 475.639L1028.29 519.104C1033.13 526.05 1035.71 534.262 1035.71 542.676C1035.71 565.167 1017.67 583.447 995.279 583.847V580.346Z" fill="#575757"/>
<path d="M675 478.565C678.851 477.82 681.517 478.32 683 480.065C690.286 488.638 691.686 500.848 692.513 508.946C697.102 553.871 695.726 602.108 686.628 629.402C680.202 648.681 690.621 669.519 709.9 675.946C726.366 681.434 744.427 674.671 753.238 659.718C769.251 632.542 786.975 608.411 799 580.565L794.41 578.582C782.468 606.236 764.839 630.181 748.93 657.179C741.317 670.101 725.709 675.945 711.481 671.202C694.822 665.649 685.819 647.642 691.372 630.983C700.75 602.849 702.142 554.014 697.487 508.438C696.483 498.605 693 482.565 684.5 474.565C683.166 473.309 680 472.809 675 473.065V478.565Z" fill="#DAFFD0"/>
<path d="M675.142 479.736C678.755 479.037 681.156 479.488 682.428 480.985C688.244 487.829 690.379 495.867 691.767 509.458C696.592 556.698 694.572 603.634 685.917 629.6C679.359 649.272 689.991 670.535 709.663 677.092C726.464 682.693 744.894 675.792 753.884 660.534C757.154 654.985 760.562 649.434 765.148 642.131C764.84 642.622 773.496 628.891 775.876 625.064C786.856 607.412 793.876 594.758 799.689 581.297L799.986 580.609L794.018 578.032L793.721 578.72C787.996 591.979 781.068 604.46 770.215 621.89C767.855 625.679 759.274 639.278 759.567 638.811C754.972 646.122 751.56 651.675 748.284 657.234C740.85 669.85 725.611 675.557 711.719 670.926C695.452 665.504 686.661 647.922 692.083 631.655C701.072 604.69 703.16 557.027 698.233 508.797C696.806 494.826 692.368 481.375 685.014 474.454C683.48 473.01 680.158 472.486 674.962 472.751L674.25 472.787V479.909L675.142 479.736ZM675.75 474.217C680.14 474.053 682.909 474.533 683.986 475.546C691.007 482.154 695.348 495.308 696.741 508.95C701.648 556.987 699.568 604.457 690.66 631.181C684.976 648.233 694.192 666.665 711.244 672.349C725.808 677.204 741.783 671.221 749.577 657.995C752.844 652.451 756.249 646.909 760.837 639.609C760.541 640.079 769.126 626.477 771.488 622.683C782.19 605.496 789.097 593.089 794.8 580.003L798.013 581.39C792.293 594.515 785.359 606.98 774.603 624.272C772.225 628.094 763.572 641.82 763.878 641.334C759.285 648.648 755.87 654.209 752.592 659.772C743.961 674.421 726.267 681.046 710.137 675.669C691.251 669.374 681.044 648.96 687.34 630.074C696.076 603.866 698.104 556.738 693.259 509.305C691.841 495.423 689.648 487.164 683.572 480.014C682.005 478.171 679.375 477.562 675.75 478.109V474.217Z" fill="#575757"/>
<path fill-rule="evenodd" clip-rule="evenodd" d="M625.957 454.425L625.831 501.089C625.825 503.298 627.611 505.093 629.82 505.099C629.956 505.1 630.093 505.093 630.229 505.08L654.709 502.628C667.476 501.35 677.266 490.719 677.49 477.89C677.712 465.164 668.163 454.384 655.503 453.068L630.37 450.457C628.173 450.229 626.207 451.825 625.978 454.022C625.964 454.156 625.957 454.29 625.957 454.425Z" fill="#DAFFD0"/>
<path d="M625.11 501.19C625.103 503.813 627.224 505.946 629.847 505.953C630.01 505.953 630.172 505.945 630.334 505.929L654.814 503.478C667.959 502.162 678.039 491.216 678.27 478.006C678.499 464.892 668.657 453.781 655.61 452.426L630.478 449.814C627.868 449.543 625.533 451.439 625.262 454.048C625.246 454.207 625.237 454.366 625.237 454.526L625.11 501.19ZM626.754 454.203C626.94 452.418 628.537 451.121 630.323 451.306L655.455 453.918C667.728 455.193 676.985 465.644 676.77 477.98C676.553 490.429 667.053 500.745 654.664 501.985L630.184 504.437C630.074 504.448 629.963 504.453 629.851 504.453C628.057 504.448 626.605 502.989 626.61 501.194L626.737 454.53C626.737 454.421 626.743 454.312 626.754 454.203Z" fill="#575757"/>
<path fill-rule="evenodd" clip-rule="evenodd" d="M602.75 465.877V472.377H625.25V465.877H602.75ZM602.75 486.877V493.377H625.25V486.877H602.75Z" fill="#575757" stroke="#575757" stroke-width="1.5"/>
<path fill-rule="evenodd" clip-rule="evenodd" d="M875.99 469.781L828.165 467.925C815.058 467.086 802.239 472.015 793.071 481.419L788.016 486.604L753.516 523.104C746.985 489.852 741.985 481.081 737.516 473C734.536 467.612 726.536 462.279 713.516 457L712.016 527.104L711.023 554.355C710.339 573.12 724.998 588.886 743.763 589.57C755.752 590.006 767.084 584.092 773.582 574.007L788.016 551.604L783.016 593.604L840.548 587.583C853.995 586.449 875.27 575.731 875.973 562.255L936.016 576.5L968.006 537.06L968.815 536.062C970.903 533.488 970.655 529.741 968.247 527.465L941.27 501.966L941.196 501.896C938.292 499.151 933.748 499.16 930.854 501.916L904.516 527L897.747 488.755C895.861 478.1 886.803 470.201 875.99 469.781Z" fill="white"/>
<path d="M738.656 472.137C735.571 466.558 727.449 461.143 714.282 455.805C713.795 455.607 713.261 455.959 713.25 456.484L711.75 526.587L710.758 553.827C710.059 573.006 725.041 589.12 744.22 589.819C756.474 590.265 768.056 584.22 774.697 573.912L787.371 554.24L782.755 593.015C782.698 593.493 783.1 593.899 783.578 593.849L841.111 587.829C857.027 586.486 875.645 574.859 877.129 562.685L936.327 576.729C936.607 576.796 936.901 576.696 937.082 576.472L969.882 536.034C972.217 533.156 971.94 528.965 969.247 526.42L942.195 500.851C939.001 497.832 934.004 497.842 930.821 500.872L905.495 524.993L898.969 488.124C897.022 477.122 887.669 468.965 876.504 468.531L828.678 466.676C815.372 465.824 802.339 470.835 793.018 480.395L787.963 485.58L754.454 521.031C749.212 494.622 745.675 484.828 738.656 472.137ZM935.917 575.527L936.673 575.27L936.214 575.161L935.917 575.527ZM876.63 561.025C876.175 560.917 875.733 561.248 875.708 561.715C875.105 573.271 856.635 585.014 840.97 586.335L784.356 592.26L789.245 551.192C789.339 550.402 788.3 550.029 787.869 550.697L773.436 573.1C767.082 582.963 756 588.747 744.275 588.32C725.923 587.652 711.588 572.233 712.257 553.882L713.249 526.631L714.726 457.608C727.004 462.691 734.546 467.803 737.344 472.863C744.41 485.641 747.895 495.409 753.264 522.748C753.382 523.346 754.126 523.562 754.545 523.119L789.045 486.619L794.092 481.442C803.108 472.195 815.713 467.349 828.601 468.174L876.446 470.03C886.906 470.436 895.668 478.078 897.492 488.386L904.261 526.63C904.366 527.22 905.084 527.455 905.517 527.043L931.856 501.959C934.46 499.478 938.551 499.47 941.165 501.941L968.216 527.51C970.339 529.517 970.558 532.82 968.717 535.089L936.214 575.161L876.63 561.025Z" fill="#575757"/>
<path fill-rule="evenodd" clip-rule="evenodd" d="M840.5 673.396H865.689C875.493 673.396 884.897 669.505 891.834 662.577L955 599.5L989 677.5L1060.5 654L1005.99 558.606C993.918 537.48 967.483 529.409 945.67 540.189L898.5 563.5L827.032 643.237C820.364 650.676 820.99 662.11 828.428 668.778C831.746 671.751 836.045 673.396 840.5 673.396Z" fill="white"/>
<path d="M989.086 678.53L1062.11 654.529L1007.14 558.338C994.872 536.868 968.006 528.665 945.838 539.621L898.538 562.995L826.973 642.841C820.029 650.588 820.681 662.497 828.428 669.44C831.883 672.537 836.36 674.25 841 674.25H866.189C876.192 674.25 885.786 670.28 892.864 663.212L955.252 600.911L989.086 678.53ZM946.503 540.965C967.96 530.362 993.963 538.301 1005.84 559.082L1059.89 653.678L989.915 676.678L955.748 598.296L891.804 662.151C885.007 668.938 875.795 672.75 866.189 672.75H841C836.729 672.75 832.609 671.174 829.429 668.323C822.299 661.933 821.699 650.972 828.09 643.842L899.462 564.212L946.503 540.965Z" fill="#575757"/>
<path fill-rule="evenodd" clip-rule="evenodd" d="M783.5 592.896L773.714 635.355C769.445 653.876 780.999 672.352 799.521 676.621C802.056 677.205 804.649 677.5 807.25 677.5H837.101C845.574 677.5 853.591 673.663 858.906 667.065L882 638.396L898.5 701.5L978.5 691.896L958.605 578.563C954.212 553.54 930.367 536.816 905.344 541.209C901.759 541.838 898.26 542.891 894.923 544.345L783.5 592.896Z" fill="white"/>
<path d="M883.221 640.206L899.06 700.781L977.624 691.349L957.866 578.796C953.545 554.181 930.088 537.73 905.474 542.051C901.946 542.67 898.505 543.706 895.222 545.137L784.146 593.536L774.445 635.627C770.269 653.745 781.571 671.817 799.689 675.993C802.168 676.565 804.705 676.853 807.25 676.853H837.1C845.346 676.853 853.149 673.12 858.322 666.698L881.3 638.173L875.77 614.671C875.675 614.268 875.925 613.864 876.328 613.77C876.731 613.675 877.135 613.925 877.23 614.328L883.23 639.828C883.26 639.957 883.255 640.087 883.221 640.206ZM897.94 702.426L881.651 640.129L859.49 667.639C854.032 674.414 845.8 678.353 837.1 678.353H807.25C804.592 678.353 801.942 678.052 799.352 677.455C780.427 673.093 768.621 654.215 772.983 635.29L782.854 592.463L894.623 543.761C898.015 542.283 901.57 541.213 905.214 540.574C930.645 536.109 954.879 553.106 959.343 578.536L979.375 692.65L897.94 702.426Z" fill="#575757"/>
<path fill-rule="evenodd" clip-rule="evenodd" d="M973.691 415.274L955.483 491.274C954.196 496.644 957.507 502.042 962.878 503.328C963.641 503.511 964.423 503.604 965.208 503.604H987.602C992.246 503.604 996.278 500.407 997.338 495.885L1015.15 419.885C1016.41 414.508 1013.07 409.128 1007.7 407.867C1006.95 407.692 1006.18 407.604 1005.41 407.604H983.416C978.791 407.604 974.769 410.776 973.691 415.274Z" fill="#575757"/>
<path fill-rule="evenodd" clip-rule="evenodd" d="M842.03 469.396L847.254 453.5H834.612C811.63 453.5 793 434.87 793 411.888C793 408.47 793.421 405.065 794.254 401.75L800.414 377.229C804.435 361.222 818.825 350 835.329 350H844.254C863.536 350 879.167 365.631 879.167 384.913C879.167 385.588 879.147 386.264 879.108 386.938L874.03 471.396" fill="white"/>
<path d="M841.287 468.766L842.713 469.234L848.26 452.354H834.582C812.015 452.354 793.72 434.059 793.72 411.492C793.72 408.135 794.134 404.792 794.952 401.536L801.111 377.015C805.049 361.342 819.139 350.354 835.299 350.354H844.224C863.092 350.354 878.387 365.649 878.387 384.517C878.387 385.177 878.368 385.838 878.33 386.498L873.251 470.955L874.749 471.045L879.827 386.586C879.867 385.896 879.887 385.206 879.887 384.517C879.887 364.82 863.92 348.854 844.224 348.854H835.299C818.451 348.854 803.761 360.31 799.657 376.65L793.497 401.171C792.649 404.546 792.22 408.012 792.22 411.492C792.22 434.887 811.186 453.854 834.582 453.854H846.188L841.287 468.766Z" fill="#575757"/>
<path fill-rule="evenodd" clip-rule="evenodd" d="M328 766.5L354 811C336.667 845 328 862 328 862C328 862 344.333 848.333 377 821L387.283 830.229L377 855.5L411.094 848.593C427.641 857.531 438.943 862 445 862C452.995 862 462.705 857.696 474.131 849.089C480.872 844.011 491.976 833.289 507.443 816.922C510.632 813.547 510.731 808.3 507.67 804.808C480.907 774.269 460.017 759 445 759C429 759 406.333 771.833 377 797.5L328 766.5Z" fill="#DAFFD0"/>
<path d="M353.146 811.024L327.332 861.659C326.961 862.387 327.855 863.099 328.481 862.575L376.983 821.992L386.39 830.435L376.305 855.217C376.08 855.772 376.562 856.354 377.149 856.235L410.977 849.382C427.504 858.294 438.804 862.75 445 862.75C453.188 862.75 463.038 858.384 474.583 849.688C481.367 844.577 492.493 833.833 507.988 817.437C511.443 813.781 511.55 808.097 508.234 804.314C481.335 773.619 460.308 758.25 445 758.25C428.842 758.25 406.185 771.034 376.928 796.567L328.401 765.866C327.737 765.446 326.956 766.2 327.352 766.878L353.146 811.024ZM376.599 798.134C376.88 798.311 377.244 798.283 377.494 798.064C406.7 772.509 429.236 759.75 445 759.75C459.726 759.75 480.48 774.919 507.106 805.303C509.911 808.504 509.821 813.313 506.898 816.407C491.458 832.744 480.377 843.445 473.68 848.49C462.372 857.008 452.801 861.25 445 861.25C439.112 861.25 427.886 856.811 411.45 847.934C411.296 847.85 411.117 847.824 410.945 847.858L378.222 854.487L387.978 830.512C388.097 830.219 388.02 829.882 387.784 829.671L377.501 820.442C377.223 820.193 376.805 820.185 376.519 820.425L330.337 859.066L354.668 811.341C354.784 811.113 354.776 810.842 354.648 810.622L330.201 768.78L376.599 798.134Z" fill="#575757"/>
<path fill-rule="evenodd" clip-rule="evenodd" d="M620.545 843.204L607 862C616.03 876.667 620.545 884 620.545 884C620.545 884 627.496 878.162 641.398 866.485C690.716 878.162 718.757 884 725.519 884C731.155 884 741.702 879.002 757.158 869.006C760.868 866.606 761.931 861.654 759.531 857.944C758.945 857.036 758.18 856.258 757.284 855.654C741.796 845.218 731.208 840 725.519 840C718.709 840 690.669 845.482 641.398 856.447L620.545 843.204Z" fill="#DAFFD0"/>
<path d="M725.519 884.75C731.355 884.75 741.984 879.713 757.566 869.636C761.623 867.011 762.786 861.594 760.161 857.536C759.52 856.544 758.683 855.692 757.703 855.032C742.087 844.509 731.414 839.25 725.519 839.25C718.639 839.25 690.72 844.706 641.538 855.647L620.35 842.192L606.099 861.967L620.362 885.133L641.592 867.302C690.788 878.945 718.683 884.75 725.519 884.75ZM641.258 857.246L641.561 857.179C690.733 846.236 718.794 840.75 725.519 840.75C731.001 840.75 741.506 845.926 756.865 856.276C757.677 856.823 758.37 857.529 758.902 858.351C761.076 861.713 760.113 866.202 756.751 868.376C741.42 878.291 730.956 883.25 725.519 883.25C718.847 883.25 690.784 877.407 641.571 865.756L641.204 865.669L620.728 882.867L607.901 862.033L620.74 844.216L641.258 857.246Z" fill="#575757"/>
<path fill-rule="evenodd" clip-rule="evenodd" d="M895 842.448L898.5 875.5C896.167 900.5 895 913 895 913C895 913 907.007 902.904 931.022 882.711C952.667 902.904 969.33 913 981.011 913C990.189 913 1002.44 905.246 1017.77 889.739C1025.78 881.64 1026.28 868.77 1018.93 860.072C1009.99 849.488 1002.01 841.797 995 837C984.979 830.142 968.572 823.475 945.779 817L949.753 847.525L931.022 865.35L895 842.448Z" fill="#DAFFD0"/>
<path fill-rule="evenodd" clip-rule="evenodd" d="M895 841.948L898.5 875C896.167 900 895 912.5 895 912.5C895 912.5 907.007 902.404 931.022 882.211C952.667 902.404 969.33 912.5 981.011 912.5C990.189 912.5 1002.44 904.746 1017.77 889.239C1025.78 881.14 1026.28 868.27 1018.93 859.572C1009.99 848.988 1002.01 841.297 995 836.5C984.979 829.642 968.572 822.975 945.779 816.5L949.753 847.025L931.022 864.85L895 841.948Z" fill="#DAFFD0" stroke="#575757" stroke-width="1.5" stroke-linejoin="round"/>
<path fill-rule="evenodd" clip-rule="evenodd" d="M675 468H679C681.209 468 683 469.791 683 472V484C683 486.209 681.209 488 679 488H675V468Z" fill="#DAFFD0"/>
<path d="M675 468H679C681.209 468 683 469.791 683 472V484C683 486.209 681.209 488 679 488H675V468ZM676.5 469.5V486.5H679C680.381 486.5 681.5 485.381 681.5 484V472C681.5 470.619 680.381 469.5 679 469.5H676.5Z" fill="#575757"/>
<path d="M975.5 499.5C973.843 499.5 972.5 498.157 972.5 496.5C972.5 494.843 973.843 493.5 975.5 493.5C976.172 493.5 976.812 493.722 977.333 494.125C978.063 494.689 978.5 495.559 978.5 496.5C978.5 498.157 977.157 499.5 975.5 499.5ZM975.5 498.5C976.605 498.5 977.5 497.604 977.5 496.5C977.5 495.872 977.209 495.293 976.721 494.916C976.374 494.647 975.949 494.5 975.5 494.5C974.395 494.5 973.5 495.395 973.5 496.5C973.5 497.604 974.395 498.5 975.5 498.5ZM988.59 409.5H999.576L1000.01 406.917L1000.99 407.082L1000.42 410.5H987.41L988.007 406.917L988.993 407.082L988.59 409.5Z" fill="white"/>
<path fill-rule="evenodd" clip-rule="evenodd" d="M1018 870.409L1006.16 866.407C1003.46 865.494 1000.54 865.494 997.837 866.407L986 870.409L996.732 875.165C1000.09 876.652 1003.91 876.652 1007.27 875.165L1018 870.409Z" fill="white"/>
<path d="M1018.24 869.698C1018.89 869.917 1018.93 870.817 1018.3 871.094L1007.57 875.851C1004.02 877.423 999.976 877.423 996.429 875.851L985.696 871.094C985.071 870.817 985.112 869.917 985.76 869.698L997.597 865.697C1000.45 864.731 1003.55 864.731 1006.4 865.697L1018.24 869.698ZM1006.96 874.48L1015.94 870.503L1005.92 867.118C1003.38 866.258 1000.62 866.258 998.077 867.118L988.063 870.503L997.036 874.48C1000.2 875.881 1003.8 875.881 1006.96 874.48ZM1002 873C1000.9 873 1000 872.105 1000 871C1000 869.895 1000.9 869 1002 869C1003.1 869 1004 869.895 1004 871C1004 872.105 1003.1 873 1002 873Z" fill="#575757"/>
<path fill-rule="evenodd" clip-rule="evenodd" d="M744 861.409L732.163 857.407C729.463 856.494 726.537 856.494 723.837 857.407L712 861.409L722.732 866.165C726.087 867.652 729.913 867.652 733.268 866.165L744 861.409Z" fill="white"/>
<path d="M744.24 860.698C744.888 860.917 744.929 861.817 744.304 862.094L733.571 866.851C730.024 868.423 725.976 868.423 722.429 866.851L711.696 862.094C711.071 861.817 711.112 860.917 711.76 860.698L723.597 856.697C726.453 855.731 729.547 855.731 732.403 856.697L744.24 860.698ZM732.964 865.48L741.937 861.503L731.923 858.118C729.378 857.258 726.622 857.258 724.077 858.118L714.063 861.503L723.036 865.48C726.197 866.881 729.803 866.881 732.964 865.48ZM728 864C726.895 864 726 863.105 726 862C726 860.895 726.895 860 728 860C729.105 860 730 860.895 730 862C730 863.105 729.105 864 728 864Z" fill="#575757"/>
<path fill-rule="evenodd" clip-rule="evenodd" d="M487 809.409L475.163 805.407C472.463 804.494 469.537 804.494 466.837 805.407L455 809.409L465.732 814.165C469.087 815.652 472.913 815.652 476.268 814.165L487 809.409Z" fill="white"/>
<path d="M487.24 808.698L475.403 804.697C472.547 803.731 469.453 803.731 466.597 804.697L454.76 808.698C454.112 808.917 454.071 809.817 454.696 810.094L465.429 814.851C468.976 816.423 473.024 816.423 476.571 814.851L487.304 810.094C487.929 809.817 487.888 808.917 487.24 808.698ZM475.964 813.48C472.803 814.881 469.197 814.881 466.036 813.48L457.063 809.503L467.077 806.118C469.622 805.258 472.378 805.258 474.923 806.118L484.937 809.503L475.964 813.48Z" fill="#575757"/>
<path d="M806.613 408.036C806.374 408.374 805.906 408.455 805.568 408.217C805.229 407.978 805.148 407.51 805.387 407.172C806.756 405.228 808.315 404.254 810.044 404.355C812.482 404.497 816.035 406.13 818.023 408.066C818.32 408.355 818.326 408.83 818.037 409.127C817.748 409.424 817.273 409.43 816.977 409.141C815.241 407.451 812.026 405.973 809.956 405.852C808.818 405.786 807.711 406.478 806.613 408.036ZM828.121 384.518C831.642 382.253 833.619 381.068 834.27 380.854C835.288 380.52 836.375 380.394 837.57 380.433C838.605 380.468 839.397 380.58 841.075 380.883C842.284 381.101 842.776 381.171 843.256 381.173C843.515 381.175 843.84 381.161 844.312 381.13C844.474 381.12 845.403 381.055 845.687 381.037C846.413 380.991 847.005 380.966 847.576 380.965C848.851 380.961 849.891 381.074 850.74 381.354C851.586 381.634 853.405 382.764 856.328 384.801C858.48 386.301 859.008 389.262 857.508 391.414C857.141 391.941 856.672 392.387 856.127 392.727C853.243 394.528 851.488 395.527 850.743 395.777C849.984 396.033 849.199 396.172 848.357 396.22C847.48 396.27 846.872 396.238 845.337 396.104C844.543 396.035 844.141 396.009 843.713 396.007C843.354 396.005 842.951 396.028 842.432 396.077C842.12 396.106 840.936 396.234 840.932 396.235C838.196 396.519 836.352 396.458 834.272 395.78C833.535 395.54 831.594 394.508 828.327 392.632C826.051 391.326 825.266 388.422 826.572 386.147C826.951 385.488 827.482 384.929 828.121 384.518ZM828.933 385.779C828.496 386.061 828.132 386.443 827.873 386.894C826.979 388.451 827.517 390.437 829.073 391.331C832.217 393.136 834.145 394.161 834.737 394.353C836.573 394.952 838.232 395.007 840.777 394.743C840.772 394.743 841.967 394.614 842.292 394.584C842.856 394.531 843.304 394.505 843.72 394.507C844.202 394.509 844.633 394.538 845.467 394.61C846.929 394.737 847.492 394.767 848.272 394.722C848.987 394.682 849.64 394.566 850.265 394.356C850.848 394.16 852.576 393.176 855.333 391.455C855.705 391.222 856.027 390.917 856.278 390.556C857.304 389.084 856.943 387.058 855.47 386.032C852.693 384.096 850.916 382.993 850.269 382.779C849.603 382.559 848.709 382.461 847.581 382.465C847.045 382.466 846.48 382.49 845.782 382.534C845.504 382.551 844.576 382.616 844.408 382.627C843.904 382.66 843.55 382.675 843.248 382.673C842.648 382.67 842.113 382.594 840.809 382.359C839.202 382.069 838.459 381.964 837.52 381.932C836.49 381.898 835.575 382.005 834.738 382.279C834.274 382.432 832.267 383.634 828.933 385.779ZM811.47 382.251C811.6 381.858 812.024 381.644 812.417 381.775C812.811 381.905 813.024 382.329 812.894 382.722L807.55 398.855C807.333 399.51 807.689 400.217 808.344 400.434C808.577 400.512 808.828 400.518 809.065 400.454L814.536 398.967C814.936 398.859 815.348 399.095 815.457 399.494C815.565 399.894 815.329 400.306 814.93 400.415L809.458 401.901C808.937 402.043 808.385 402.028 807.872 401.858C806.431 401.381 805.649 399.825 806.126 398.383L811.47 382.251ZM799.314 382.83L799.686 381.377C800.702 381.637 801.486 382.029 802.03 382.573C802.33 382.873 802.91 383.63 803.82 384.9C805.349 387.032 804.86 390 802.728 391.528C802.693 391.553 802.693 391.553 802.657 391.578C801.225 392.566 800.28 393.134 799.737 393.315C798.851 393.611 797.726 393.611 796.354 393.339L796.645 391.868C797.784 392.093 798.66 392.093 799.263 391.892C799.621 391.773 800.497 391.245 801.805 390.343C801.83 390.326 801.83 390.326 801.854 390.309C803.313 389.263 803.647 387.233 802.601 385.774C801.747 384.582 801.187 383.851 800.97 383.634C800.639 383.303 800.09 383.029 799.314 382.83ZM845.794 402.85C846.042 402.162 847.025 402.198 847.222 402.901L849.843 412.262C850.46 414.465 850.111 416.826 848.883 418.756C848.705 419.035 848.484 419.284 848.229 419.493C846.9 420.58 844.942 420.384 843.855 419.056L843.669 418.828C842.107 416.919 841.662 414.328 842.498 412.006L845.794 402.85ZM848.399 412.667L846.411 405.566L843.909 412.514C843.252 414.34 843.602 416.377 844.83 417.879L845.016 418.106C845.579 418.793 846.592 418.894 847.279 418.332C847.411 418.224 847.525 418.095 847.617 417.951C848.616 416.381 848.901 414.459 848.399 412.667Z" fill="#575757"/>
<path d="M836 391.604C837.933 391.604 839.5 390.037 839.5 388.104C839.5 386.171 837.933 384.604 836 384.604C834.067 384.604 832.5 386.171 832.5 388.104C832.5 390.037 834.067 391.604 836 391.604Z" fill="#575757"/>
<path fill-rule="evenodd" clip-rule="evenodd" d="M862.5 368.604C828.104 373.342 806.104 375.342 796.5 374.604C788.732 374.006 782.559 371.057 777.98 365.757C776.897 364.503 777.035 362.608 778.289 361.525C778.71 361.162 779.223 360.922 779.772 360.834L806 356.604L788 348.604L822.5 350.104L806 340.104L838.5 345.604L858.998 347.724C871.837 349.052 881.327 360.298 880.476 373.178L878.5 403.104L862.5 368.604Z" fill="#575757"/>
<path d="M471 812C472.105 812 473 811.105 473 810C473 808.895 472.105 808 471 808C469.895 808 469 808.895 469 810C469 811.105 469.895 812 471 812Z" fill="#575757"/>
<path d="M969.442 863.665C969.809 863.474 969.952 863.021 969.761 862.654C969.569 862.286 969.116 862.144 968.749 862.335L946.654 873.835C946.169 874.087 946.108 874.756 946.539 875.092C952.334 879.605 957.099 882.478 960.861 883.713C964.614 884.944 970.646 885.618 978.988 885.75C979.402 885.757 979.743 885.426 979.75 885.012C979.757 884.598 979.426 884.257 979.012 884.25C970.809 884.12 964.905 883.461 961.329 882.288C957.959 881.182 953.638 878.627 948.388 874.623L969.442 863.665Z" fill="#575757"/>
<path d="M947 875.25C953.74 875.25 960.48 874.239 967.216 872.219C967.612 872.1 967.837 871.681 967.718 871.285C967.599 870.888 967.181 870.663 966.784 870.782C960.187 872.761 953.593 873.75 947 873.75C946.586 873.75 946.25 874.086 946.25 874.5C946.25 874.914 946.586 875.25 947 875.25Z" fill="#575757"/>
<path d="M947.119 875.146C954.603 879.568 962.943 881.1 972.11 879.742C972.52 879.681 972.803 879.3 972.742 878.89C972.681 878.48 972.3 878.197 971.89 878.258C963.057 879.567 955.064 878.099 947.882 873.854C947.525 873.644 947.065 873.762 946.854 874.119C946.644 874.475 946.762 874.935 947.119 875.146Z" fill="#575757"/>
<path d="M950.493 847.565L960.243 839.065C960.555 838.793 960.588 838.319 960.315 838.007C960.043 837.695 959.569 837.662 959.257 837.935L949.507 846.435C949.195 846.707 949.162 847.181 949.435 847.493C949.707 847.805 950.181 847.838 950.493 847.565Z" fill="#575757"/>
<path d="M914.057 875.004L897.083 895.972L895.917 895.028L911.928 875.25H898.5C898.086 875.25 897.75 874.914 897.75 874.5C897.75 874.086 898.086 873.75 898.5 873.75H911.726L895.962 857.523C895.673 857.225 895.68 856.751 895.977 856.462C896.275 856.173 896.749 856.18 897.038 856.477L914.038 873.977C914.338 874.286 914.301 874.73 914.057 875.004Z" fill="#575757"/>
<path d="M626.925 862.619L627.222 862.702L621.222 884.202L619.778 883.799L625.652 862.75H607C606.586 862.75 606.25 862.414 606.25 862C606.25 861.586 606.586 861.25 607 861.25H625.477L619.785 843.226C619.66 842.831 619.879 842.41 620.274 842.285C620.669 842.16 621.09 842.379 621.215 842.774L627.215 861.774C627.32 862.105 627.184 862.44 626.925 862.619Z" fill="#575757"/>
<path d="M675.584 861.356L700.012 861.75L699.988 863.25L676.152 862.866L704.167 869.269C704.571 869.361 704.823 869.763 704.731 870.167C704.639 870.571 704.237 870.824 703.833 870.731L668.833 862.731C668.05 862.552 668.058 861.435 668.843 861.267L703.843 853.767C704.248 853.68 704.647 853.938 704.733 854.343C704.82 854.748 704.562 855.147 704.157 855.233L675.584 861.356Z" fill="#575757"/>
<path d="M365.491 811.25H354.5C354.086 811.25 353.75 810.914 353.75 810.5C353.75 810.086 354.086 809.75 354.5 809.75H365.333L327.439 766.997C327.164 766.687 327.193 766.213 327.503 765.939C327.813 765.664 328.287 765.693 328.561 766.003L367.561 810.003C367.798 810.27 367.814 810.668 367.598 810.953L328.598 862.453C328.348 862.783 327.877 862.848 327.547 862.598C327.217 862.348 327.152 861.877 327.402 861.547L365.491 811.25ZM377.462 856.091C377.135 856.346 376.664 856.288 376.409 855.962C376.154 855.635 376.212 855.164 376.538 854.909L429.038 813.909C429.365 813.654 429.836 813.712 430.091 814.038C430.346 814.365 430.288 814.836 429.962 815.091L377.462 856.091ZM377.355 798.161C376.99 798.357 376.536 798.22 376.34 797.855C376.143 797.49 376.28 797.036 376.645 796.84C416.529 775.389 445.956 770.849 464.913 783.374C465.259 783.603 465.354 784.068 465.126 784.413C464.897 784.759 464.432 784.854 464.087 784.626C445.711 772.485 416.804 776.944 377.355 798.161Z" fill="#575757"/>
<path d="M411 848.5C424.667 843.167 430.833 831.833 429.5 814.5" stroke="#575757" stroke-width="1.5" stroke-linecap="round" stroke-linejoin="round"/>
<path d="M388.12 830.421C399.928 813.039 413.546 808.013 429.188 815.182C429.564 815.354 430.009 815.189 430.182 814.812C430.354 814.436 430.189 813.991 429.813 813.818C413.454 806.32 399.073 811.628 386.88 829.578C386.647 829.921 386.736 830.388 387.079 830.62C387.421 830.853 387.888 830.764 388.12 830.421Z" fill="#575757"/>
<path d="M884.768 529.339C884.856 528.935 885.256 528.679 885.661 528.767C886.065 528.856 886.321 529.256 886.233 529.661L881.733 550.161C881.644 550.565 881.244 550.821 880.839 550.733C880.435 550.644 880.179 550.244 880.268 549.839L884.768 529.339ZM811.343 478.733C810.594 478.573 810.539 477.526 811.266 477.287L841.766 467.287C842.228 467.136 842.709 467.456 842.748 467.94L845.248 498.94C845.283 499.376 844.938 499.75 844.5 499.75H828.5C827.886 499.75 827.532 499.052 827.895 498.556L838.21 484.491L811.343 478.733ZM814.371 477.848L839.657 483.267C840.189 483.381 840.426 484.005 840.105 484.443L829.98 498.25H843.687L841.329 469.009L814.371 477.848ZM879.703 498.739C879.885 499.229 879.522 499.75 879 499.75H867C866.515 499.75 866.157 499.296 866.271 498.824L873.271 469.824C873.394 469.315 873.988 469.085 874.421 469.379L888.421 478.879C888.912 479.212 888.84 479.956 888.295 480.189L874.951 485.908L879.703 498.739ZM867.953 498.25H877.922L873.297 485.76C873.158 485.386 873.337 484.968 873.705 484.811L886.444 479.351L874.475 471.229L867.953 498.25ZM812.75 515.25V524C812.75 531.042 818.458 536.75 825.5 536.75C832.542 536.75 838.25 531.042 838.25 524V515.25H812.75ZM812.75 513.75H838.25V510.75H812.75V513.75ZM879.277 517.462L879.797 515.016L870.505 513.041L869.985 515.486L879.277 517.462ZM878.966 518.929L869.673 516.954L866.191 533.338C865.645 535.904 867.283 538.426 869.849 538.971C872.415 539.517 874.938 537.879 875.483 535.313L878.966 518.929ZM811.25 509.25H839.75V524C839.75 531.87 833.37 538.25 825.5 538.25C817.63 538.25 811.25 531.87 811.25 524V509.25ZM869.349 511.262L881.576 513.861L876.95 535.625C876.233 539.001 872.914 541.156 869.537 540.439C866.161 539.721 864.006 536.402 864.723 533.026L869.349 511.262Z" fill="#575757"/>
<path fill-rule="evenodd" clip-rule="evenodd" d="M951 509.5L942 501.5C945.488 485.342 947.488 476.009 948 473.5C948.409 471.494 950.622 468.429 954.637 464.305C957.011 461.866 959.072 459.141 960.773 456.193L965.5 448C972.167 448 974.333 450.833 972 456.5C970.464 460.231 965.604 468.007 957.422 479.829" fill="white"/>
<path d="M948.235 473.65C948.606 471.832 950.757 468.852 954.674 464.828C957.092 462.345 959.191 459.57 960.923 456.568L965.431 448.754C971.238 448.861 972.876 451.188 970.807 456.214C969.299 459.876 964.455 467.628 956.305 479.402L957.539 480.256C965.754 468.386 970.629 460.585 972.193 456.786C974.74 450.601 972.177 447.25 965 447.25C964.732 447.25 964.484 447.393 964.35 447.625L959.623 455.818C957.954 458.713 955.93 461.387 953.6 463.782C949.487 468.006 947.213 471.157 946.765 473.35C946.254 475.855 944.254 485.189 940.767 501.342C940.71 501.606 940.8 501.881 941.002 502.061L950.002 510.061L950.998 508.939L942.326 501.23C945.757 485.331 947.727 476.141 948.235 473.65Z" fill="#575757"/>
<path fill-rule="evenodd" clip-rule="evenodd" d="M667 501.5L666.586 501.451C664.321 501.186 662.523 499.421 662.214 497.161L661.988 495.5C661.626 492.849 663.483 490.406 666.134 490.044C666.351 490.015 666.57 490 666.789 490H667.238H686.738" fill="white"/>
<path d="M667.663 501.268L666.562 501.023C664.826 500.637 663.513 499.211 663.273 497.449L662.993 495.399C662.688 493.158 664.257 491.093 666.498 490.788C666.681 490.763 666.866 490.75 667.051 490.75H687V489.25H667.051C666.798 489.25 666.546 489.267 666.295 489.301C663.233 489.719 661.09 492.539 661.507 495.601L661.787 497.651C662.112 500.036 663.887 501.965 666.237 502.487L667.337 502.732L667.663 501.268Z" fill="#575757"/>
<path d="M845.246 498.918C845.201 498.506 844.83 498.209 844.419 498.254C844.007 498.299 843.709 498.669 843.755 499.081L850.755 563.081C850.846 563.917 852.031 563.993 852.229 563.176L874.729 470.176C874.826 469.773 874.579 469.368 874.176 469.271C873.774 469.173 873.369 469.421 873.271 469.823L851.779 558.656L845.246 498.918Z" fill="#575757"/>
<path d="M1065.21 656.641L1086.92 673.947C1087.24 674.206 1087.3 674.678 1087.04 675.001C1086.78 675.325 1086.31 675.379 1085.98 675.12L1064.69 658.141L1072.12 667.83C1072.49 668.313 1072.79 668.843 1073.02 669.407C1074.42 672.867 1072.75 676.808 1069.29 678.209C1068.61 678.484 1067.89 678.638 1067.16 678.664C1063.7 678.787 1060.79 676.078 1060.66 672.614L1060.01 654.106L1059.24 653.732L1059.99 653.606L1059.93 651.935L1061.07 653.425L1079 650.431C1079.6 650.331 1080.21 650.312 1080.81 650.375C1084.52 650.762 1087.22 654.086 1086.83 657.799C1086.76 658.527 1086.55 659.237 1086.23 659.896C1084.72 663.012 1080.96 664.308 1077.84 662.791L1065.21 656.641ZM1070.93 668.743L1061.6 656.572L1062.16 672.561C1062.26 675.197 1064.47 677.258 1067.11 677.165C1067.66 677.145 1068.21 677.028 1068.73 676.818C1071.42 675.728 1072.72 672.662 1071.63 669.97C1071.45 669.531 1071.22 669.119 1070.93 668.743ZM1064.11 654.438L1078.5 661.442C1080.87 662.597 1083.73 661.611 1084.88 659.239C1085.13 658.738 1085.28 658.198 1085.34 657.643C1085.64 654.754 1083.54 652.168 1080.66 651.867C1080.18 651.818 1079.71 651.832 1079.24 651.91L1064.11 654.438Z" fill="#575757"/>
<path fill-rule="evenodd" clip-rule="evenodd" d="M894.359 697.883L890 689.5L906.5 682.5L938 678H978V691.806C978 693.892 976.397 695.628 974.318 695.794L901.126 701.631C898.322 701.855 895.657 700.378 894.359 697.883ZM982 667L998 658L1023 648.5L1047 640.5L1057 639L1060.5 654.5L994.095 677.096C990.864 678.196 987.311 676.804 985.685 673.803L982 667Z" fill="white"/>
<path d="M894.194 697.729L889.46 688.626L906.707 681.309L906.894 681.257L938.394 676.757L938.5 676.75H979.25V691.306C979.25 693.783 977.347 695.844 974.878 696.041L901.686 701.879C898.581 702.126 895.63 700.492 894.194 697.729ZM895.524 697.037C896.683 699.265 899.063 700.583 901.566 700.383L974.758 694.546C976.448 694.411 977.75 693.001 977.75 691.306V678.25H938.553L907.203 682.729L891.54 689.374L895.524 697.037ZM981.489 666.208L998.132 656.846L998.234 656.799L1023.26 647.288L1047.26 639.288L1047.39 639.258L1058.08 637.655L1061.88 654.493L994.837 677.306C991.259 678.523 987.326 676.983 985.526 673.66L981.489 666.208ZM986.845 672.946C988.296 675.626 991.469 676.868 994.354 675.886L1060.12 653.507L1056.92 639.345L1047.68 640.732L1023.77 648.701L998.819 658.181L983.511 666.792L986.845 672.946Z" fill="#575757"/>
<path d="M804.755 584.084C807.708 610.338 798.347 623.25 776.5 623.25C776.086 623.25 775.75 623.586 775.75 624C775.75 624.414 776.086 624.75 776.5 624.75C799.32 624.75 809.292 610.996 806.245 583.916C806.199 583.505 805.828 583.208 805.416 583.255C805.005 583.301 804.708 583.672 804.755 584.084Z" fill="#575757"/>
<path d="M964.826 702.403L965.568 714.591C965.605 715.198 965.56 715.807 965.434 716.402C964.661 720.054 961.074 722.387 957.422 721.614C956.705 721.463 956.02 721.187 955.399 720.799C952.458 718.964 951.562 715.092 953.397 712.151L963.109 696.587C963.218 696.411 963.374 696.305 963.542 696.259C963.68 695.881 964.12 695.626 964.562 695.828L980.652 703.165C981.206 703.418 981.722 703.744 982.188 704.134C985.05 706.531 985.426 710.794 983.029 713.656C982.559 714.218 981.994 714.692 981.359 715.059C978.359 716.794 974.519 715.768 972.784 712.767L965.931 700.914L974.418 727.938C974.542 728.334 974.322 728.754 973.927 728.879C973.532 729.003 973.111 728.783 972.987 728.388L964.826 702.403ZM964.071 714.682L963.139 699.372L954.669 712.946C953.273 715.183 953.955 718.13 956.193 719.526C956.666 719.821 957.187 720.031 957.732 720.147C960.574 720.748 963.365 718.932 963.967 716.091C964.065 715.628 964.1 715.154 964.071 714.682ZM966.075 698.166L974.083 712.016C975.403 714.3 978.325 715.081 980.609 713.76C981.091 713.481 981.521 713.12 981.879 712.693C983.744 710.466 983.452 707.149 981.225 705.284C980.862 704.98 980.46 704.727 980.03 704.53L966.075 698.166Z" fill="#575757"/>
</svg>
